<svg version="1" xmlns="http://www.w3.org/2000/svg" width="800" height="800" viewBox="0 0 600.000000 600.000000"><path d="M277 30.1c0 .6-.7.8-1.6.5-.8-.3-1.3-.2-1 .3.3.5-.1 1.1-.9 1.5-.8.3-1.7 0-2.1-.6-.4-.7-.9-.6-1.5.3-.6 1-.9 1.1-.9.1 0-.6-.7-1.2-1.6-1.2-.8 0-1.2.5-.9 1 .4.6.3 1-.2.9-3.1-.5-12.3.3-11.8 1 .3.6-.6.8-2.1.5-1.4-.3-2.3-.1-2 .4.3.5-.6.7-1.9.4-1.7-.3-2.5 0-2.5.9 0 1.1-.2 1.1-1-.1-.8-1.2-1-1.2-1-.1 0 1-.3 1.1-1.4.2-1.1-.9-1.7-.8-2.9.3-.8.8-1.7 1.2-2.1.9-.3-.3-1.3 0-2.3.8-1.5 1.2-1.6 1.2-.8-.1.7-1.2.6-1.3-.6-.3-.9.7-2.6 1.4-4 1.7-1.3.2-2.3.8-2.2 1.3.1.5-1.1.8-2.5.7-3.9-.1-6.3.7-5.5 1.9.3.6.1.7-.6.3-.6-.4-1.8-.2-2.6.4-.8.7-2.2 1-3 .6-1-.4-1.4-.2-.9.5.4.7.1 1-.7.7-.8-.3-2 .2-2.7 1.1-1.1 1.4-1.1 1.4-.6-.4.5-1.9.5-1.9-.9-.2-.8 1-1.9 1.9-2.4 2-.4.1-.7.5-.6.9.2.4-.3.5-1.1.2s-1.7-.1-2.1.5c-.3.6-1.2 1.1-1.8 1.1-.7 0-.6-.4.3-1 .8-.5 1-1 .4-1s-1.9.9-2.9 2-2.9 2-4.2 2c-1.3 0-2.2.4-1.9.9.3.5-.1 1.2-1 1.5-.8.3-1.2.2-.9-.4.3-.6.1-1-.4-1-.6 0-1.1.8-1.2 1.7 0 1.2-.2 1.3-.6.5-.3-.9-1-.7-2.4.9-1 1.2-1.9 1.7-1.9 1 0-.9-.4-.8-1.4.1-.8.7-1.2 1.6-1 2 .3.4-.5.5-1.7.3-1.5-.3-1.9 0-1.5 1 .3.9-.1 1.2-1.5 1-1.3-.3-1.9.2-1.9 1.3 0 1.4-.2 1.5-1 .2-.7-1.2-1.1-1-1.9 1-.5 1.4-1 1.9-1 1.2-.1-1-.5-1-2 0-1.1.7-1.8 1.5-1.5 1.9.2.5-.5.6-1.6.4-1.1-.2-1.8 0-1.6.4.6.9-4.3 3.6-5.7 3.2-.5-.1-.6.3-.2.9.3.5.1 1-.6 1-.6 0-1.8.8-2.6 1.7-.8 1.1-1.1 1.2-.7.3.7-1.3.5-1.3-.9-.1-.9.7-1.5 1.7-1.2 2.1.3.5-.4.6-1.5.3-1.8-.5-2.5.5-2.1 3 .1.5-.3.6-.8.2-.6-.3-1.9.3-3.1 1.5-1.1 1.1-2.5 2-3.1 2-.5 0-.7.4-.4 1 .3.5-.3 1-1.4 1-1.1 0-2.3.5-2.7 1.2-.5.7-.2.9.7.4.8-.4.5-.1-.6.8-1.1.8-2.5 1.9-3 2.4-.6.5-1.6.7-2.3.4-.7-.2-1.2 0-1.1.5.3 2-.2 3.4-1.1 2.8-.6-.3-1.3.1-1.6.9-.3.9-1.1 1.3-1.7.9-.6-.4-.8 0-.5.8.6 1.5-1.6 4.2-2.6 3.2-.3-.4-.6-.1-.6.6s-.5.9-1.2.5c-.8-.5-.9-.2-.5.9s.1 1.7-.9 1.7c-.8 0-1.7.7-2 1.5-.4.8-1.2 1.5-2 1.5s-1.4 1-1.4 2.2c0 1.2-.3 1.8-.7 1.5-.3-.4-1.7.6-3.1 2.1-1.4 1.5-2.9 2.6-3.2 2.5-.3-.1-.7.8-.7 1.9-.1 1.2-.7 2.6-1.4 3.2-.9.8-1 .7-.5-.4.4-.8.1-.6-.8.5-.8 1.1-2 2.6-2.6 3.2-.6.7-.8 1.3-.3 1.3.4 0-.2.6-1.2 1.4-1.1.8-2.4 1.2-2.8.9-.5-.3-.4.5.3 1.7.8 1.5.8 2 .1 1.6-.6-.4-1.5.4-2.1 1.8-.5 1.4-1.2 2.6-1.5 2.6-.4 0-.3-.5 0-1 .3-.6.2-1-.3-1-1.5 0-2.3 3-.9 3.1.7 0 .1.5-1.2 1-1.6.6-2.2 1.5-1.8 2.9.3 1.1 0 1.8-.7 1.7-.6-.1-1 .3-.9 1 .2.6-.6 1.5-1.7 1.8-1.1.4-2 1.1-2 1.6 0 .6.6.7 1.3.4.6-.4.3.1-.8 1s-1.9 2.1-1.7 2.6c.1.5-.3.9-.9.9-.6 0-.8.7-.5 1.7.4 1 .4 1.4 0 1.1-1.1-1.2-3.3 1.6-2.3 2.9.7.7.6 1.4-.2 1.9s-.9.3-.4-.6c.6-.9.4-1.1-.4-.6-.7.5-1 1.4-.7 2.2.3.8 0 1.3-.6 1.1-.7-.1-1.4.7-1.6 1.8-.2 1.1-1.1 2.6-2 3.2-.9.7-1.2 1.3-.6 1.3.5 0 0 .7-1 1.5-1.1.8-1.7 1.5-1.3 1.5.4 0 0 1.5-1 3.2-.9 1.8-1.8 3.5-1.8 3.8 0 .3-.6 1.5-1.3 2.6-.6 1.2-.8 2.4-.5 2.8.3.3.1.6-.6.6s-.9.4-.6 1c.3.5 0 1-.7 1-.9 0-.9.3.2 1 1.2.8 1.2 1-.5 1s-1.7.2-.5 1c.8.5 1 1 .3 1-1.2 0-3.5 5.5-2.6 6.4.4.3.1.6-.6.6s-.9.4-.6 1c.3.5.2 1-.3 1-.6 0-1.3.7-1.6 1.6-.3.8-.2 1.3.2 1 1.6-1 .6 3.3-1.3 5.4-1 1.1-1.5 2-1 2 .4 0 0 1.2-1 2.6-.9 1.5-1.2 2.3-.6 2 1.4-.9 1.4-.2.1 2.4-.5 1.1-1.5 2.9-2 4-.8 1.5-.7 2 .2 2 .8 0 .9.3.3.8-1.6 1.1-4.1 4.7-2.9 3.9.7-.4 1.4 0 1.8.8.3.8 0 1.4-.6 1.2-1-.2-1.5 1.7-1.9 7.5-.1 1.5-.5 2.5-.9 2.3-1.2-.7-.6 2.9.5 3.7.6.5.4.8-.5.8-1.1 0-1.5 1.2-1.4 5 .1 2.7-.3 5-.7 5-.5 0-.9 1-.9 2.2 0 1.9.2 2 1 .8.6-.9 1-1 1-.3 0 .6-.4 1.4-.9 1.7-.5.4-.8 1.4-.7 2.4.2.9-.4 2.3-1.3 2.9-1.4 1.2-1.4 1.4.3 2.8 2 1.5 2 1.5 0 1.6-1.1 0-1.4.3-.6.6 1 .4 1 .8 0 2.1-1 1.2-1 1.4 0 .8.6-.4 1.2-.3 1.2.1 0 .5-.6 1.5-1.2 2.2-.9 1-.9 1.2-.1.7.8-.4 1.1.1 1 1.4-.1 1.1-.6 2-1.1 2-.5 0-.1.7 1 1.6 1 .8 1.4 1.3.8 1-.7-.3-1.5.1-1.8 1-.3.8-.2 1.2.4.9.5-.3.8.4.7 1.5-.1 1.1-.6 2-1.2 2-.5 0-.4.4.4.9s1.6 1.7 1.7 2.5c.1.9-.2 1.4-.6 1.1-.5-.3-1.1-.1-1.5.5-.3.5-.2 1 .3 1s.9.7.9 1.5-.5 1.5-1.1 1.5c-.6 0-.5.4.3.9 1.3.8 1.3 1.2 0 2.7-.8 1-.9 1.5-.3 1.1.7-.4 1.4.2 1.7 1.4.5 1.7.3 1.8-1 .7-1.5-1.2-1.5-1.1-.4.9.6 1.3.9 2.3.6 2.3-.3 0 0 1 .6 2.2 1.1 2 1 2.1-.3 1.1-1.2-1-1.4-1-1.3.5.1.9.6 2.6 1.1 3.7.5 1.1.9 3.3.8 4.8 0 1.5.3 3 .8 3.3.4.3.3 1.4-.3 2.6-.8 1.5-.8 1.9 0 1.3.8-.4 1.1.4.9 2.8-.1 1.9.3 4.2 1 4.9.9 1.1.9 1.7 0 2.6-.9.9-.7 1.2.8 1.3 1 0 1.3.3.7.6-.8.3-1 1.1-.5 2.1.4.9.7 3 .6 4.5-.1 2.1.3 2.7 1.4 2.2 1.1-.4 1.2-.2.5.7-.6.7-.8 2.2-.6 3.3.2 1.1.6 2.9.7 3.9.1 1.1.8 2.2 1.4 2.4.7.2 1 .8.6 1.3-.3.5 0 .9.7.9.8 0 .8.4-.1 1.5-1.2 1.4-.7 2 1.4 1.6.5-.1.4.5-.4 1.3-.8 1-.9 1.6-.2 1.6.6 0 .9.6.6 1.4-.3.8 0 1.7.5 2.1.6.3.9 1.1.6 1.6-.4.5-.2.9.3.9.6 0 .8.9.5 2-.4 1.5 0 2 1.3 2 1.6 0 1.7.2.4 1-.9.6-1.1 1-.3 1 .7 0 1 .7.6 1.7-.4 1.1-.3 1.4.5.9.7-.4 1.3-.4 1.3.1.1.4.3 2.1.5 3.7.1 1.5 1.1 3.8 2.1 4.9 1 1.1 1.2 1.7.5 1.3-1.2-.7-1.2-.4-.1 1.5.7 1.3 1.2 2.8 1 3.4-.1.5.1.7.5.3 1-1 4.6 7.1 3.7 8.5-.3.6-.1.7.5.3.7-.4 1.2-.2 1.2.5 0 .6.8 1.8 1.7 2.6 1 .8 1.2 1.2.6.8-.7-.3-1.3-.1-1.3.4 0 .6.6 1.1 1.3 1.1.7 0 1.4 1 1.4 2.2.1 1.3.9 2.8 1.8 3.4 1.2.9 1.3 1.3.3 1.7-.9.4-.7.6.4.6.9.1 2 .6 2.4 1.3.4.7.3.8-.4.4-.8-.5-1-.2-.6.8.3.9 1.1 1.3 1.7.9.6-.4.8 0 .4 1-.3.9 0 1.8.9 2.1.8.3 1.4 1.2 1.4 1.9 0 1.2 1 2.6 5 7.5.6.6.8 1.2.3 1.2-.4 0 .1.6 1.2 1.3 1.1.9 1.5 1.9 1 2.7-.5.9-.4 1.1.3.6.7-.4 1.4.4 1.8 2 .5 1.9.9 2.2 1.5 1.2.7-1 .9-.8 1 .7.1 1.1.1 2.4 0 2.8-.1.5.2.6.7.3.5-.3 1.4.4 2.2 1.4.8 1 1.7 1.7 2.2 1.4.4-.3.5.2.2 1-.3.9-.1 1.6.6 1.6.6 0 .8.5.4 1.2-.5.7-.2.9.9.5s1.4-.2 1.1.7c-.3.7.3 1.9 1.3 2.7 1.7 1.3 1.7 1.3.3-.6s-1.4-1.9.2-.6c1 .7 1.5 1.8 1.2 2.3-.4.5.7 2.2 2.4 3.8 1.7 1.5 2.8 3 2.5 3.4-.3.3.4.3 1.7.1 1.9-.4 2-.2.8 1.2-.7.9-.8 1.4-.3 1.1 1.2-.6 6.6 4.8 5.6 5.7-.3.4-.1.6.4.5 2.1-.5 3.6 0 3 1-.3.5-.1 1 .5 1s.9.4.5.9c-.3.6.4.8 1.6.6 1.8-.4 1.9-.2.8 1.3-.7.9-1 1.4-.5 1 .4-.3 2 .6 3.4 2.1 1.5 1.5 2 1.8 1.2.7-1.2-1.7-1-1.7 1.2.3 1.5 1.3 2.5 2.8 2.1 3.4-.3.6-.1.7.5.3.7-.4 1.2-.2 1.2.4 0 .6.5.8 1 .5.6-.3 1 .2 1 1.1 0 1 .3 1.5.6 1.1.4-.3 1.3.1 2.1.9s1.9 1.2 2.4.9c.5-.4.6.1.3.9-.4 1.2 0 1.6 1.7 1.6 1.2 0 1.9.3 1.6.6-1 1 7.2 6.6 8.5 5.8.7-.5.8-.2.3.6-.6 1-.4 1.2.8.7.9-.3 1.6-.3 1.6.1-.3 1.9.2 3.3 1 2.7.5-.3 1.6.1 2.4.9.8.8 1.7 1.2 2.1.9.3-.4.6-.1.6.5 0 .7.6 1.2 1.4 1.2.8 0 1.8.5 2.2 1.2.5.7.3.8-.6.3-.8-.5-1.1-.4-.6.3.4.6 1.3.9 2.1.5.8-.3 1.5 0 1.5.7s.8.9 2.3.5c1.4-.4 1.8-.3.9.3-1 .7-.9 1.2.4 2.3 1.2.9 1.5 1 1 .2-1-1.8.6-1.6 3 .3 1 .8 1.3 1.3.7.9-2.2-1.1-1.4.4.8 1.6 1.3.7 1.9.7 1.5.1-.3-.6-.1-1.4.5-1.8.7-.4.9-.3.6.3-.8 1.3 3.8 5.7 5.1 4.9.5-.3 2.1.3 3.4 1.4 2 1.5 2.8 1.6 3.8.7 1-.9 1.1-.9.6 0-.4.7-.2 1.3.4 1.3.6 0 .9.4.6.8-.3.5.1.9.9.9s1.2-.4.9-.9c-.3-.4.2-.5 1-.2.9.3 1.4 1 1.1 1.4-.7 1.2 2.1 2 3.4.9.6-.5.9-.6.6-.2-.7.8 5.5 3.7 7.4 3.4.8-.1 1 .2.5 1-.5.9-.2 1 .9.6 1-.3 1.7-.2 1.7.4 0 .6.9.8 2.1.4 1.6-.5 1.9-.4 1.4.6-.6.9-.3 1.1.8.6 1-.3 1.7-.2 1.7.4 0 .6.4.7 1 .4.6-.3 1 0 1 .7 0 .9.3.9 1-.2s1-1.1 1-.2c0 .7.5 1 1 .7.6-.3 1 .2 1.1 1.2 0 1 .3 1.3.6.5.6-1.4 3.3-1.6 3.3-.2 0 .5 1 1 2.3 1 1.3 0 2.8.5 3.5 1.2.8.8 1.5.8 2.6-.1 1.2-1 1.4-.8.9 1.1-.3 1.3-.1 1.8.4 1.2.9-1.3 6.9-1.2 8 .1.5.4.2.5-.6 0-1-.6-1.2-.4-.7.4.6.9 1.1.9 2.2 0 .9-.7 1.4-.8 1.4-.1 0 .6.9.9 2 .7 1.1-.2 2 .2 2.1.8 0 .7.4.3.9-.8.7-1.6.9-1.6.9-.4.1 2 2.8 3.3 3.5 1.6.2-.7.5-.8.5-.2.1.5 2.1 1 4.6.9 2.4 0 4.2.3 3.9.8-.8 1.3 1 1 2.5-.4 1.1-1 1.3-1 .7-.1-.5.8-.1 1.3.9 1.3.9 0 1.3-.5 1-1.1-.5-.6.2-.6 1.6.2 5.5 2.8 6.1 3.1 5.4 2-.8-1.4.8-1.4 2.2 0 .8.8 1.3.8 1.7 0 .4-.6 1.4-1.1 2.2-1.1 1 0 1.2.5.8 1.2-.5.9-.2.9.9-.1 1.4-1.1 1.7-1.1 1.7 0s.2 1.1 1-.1c.5-.8 1-1.1 1-.5 0 .5.5.3 1-.5.8-1.2 1-1.2 1 .5 0 1.1.4 1.5.8 1 1.1-1.6 4.6-1.9 3.6-.3-.6.9-.3.9 1-.1 1.5-1.3 1.9-1.3 2.7 0 .8 1.2 1.3.6 1-1.3 0-.4.6-.5 1.4-.2.8.4 1.5 1.1 1.5 1.8 0 .6.5.4 1-.4s1-1.1 1-.5c0 .5.5.3 1-.5.8-1.2 1-1.2 1 .5 0 1.1.4 1.5.8 1 1.1-1.6 4.6-1.9 3.6-.3-.6.9-.3.9 1-.1 1.5-1.3 1.9-1.3 2.7 0 .8 1.2 1.3.6 1-1.3 0-.4.5-.5 1.2-.3 2.5 1 7.6 1.2 7.1.4-.6-1 2.5-.7 4.3.4.9.6 1.1.3.6-.9-.4-1.2-.3-1.5.5-1 2.1 1.3 5.3 1.6 4.6.4-.5-.8.4-.9 3-.5 2.5.4 3.4.2 3-.5-.4-.7-.2-.8.5-.4.6.4 1.9.2 2.8-.6 1.4-1.1 1.6-1.1.8.2s-.7 1.3.8.1c1.4-1.1 1.7-1.1 1.7 0 0 1 .2 1.1.8.2.4-.7 2.4-1.3 4.4-1.5 2.1-.1 3.4-.6 3.1-1.2-.4-.5 0-.7.9-.3.9.3 2.1 0 2.8-.6.8-.8 1.1-.8.7-.1-.4.7.2.9 1.8.6 1.4-.2 2.5-.8 2.5-1.3s.3-.8.8-.8c2.5.4 4.2-.2 3.6-1.4-.6-.9-.4-.9.8.1 1.1.9 1.8 1 2.3.2.3-.6 1.1-.8 1.6-.5.5.4.9.1.9-.5s.4-.8 1-.5c.5.3 1.8.1 2.7-.4 1.3-.7 1.4-1 .4-1.1-.8 0-1.1-.3-.8-.6.4-.4 1.3-.1 2.2.6 1 .8 1.5.9 1.5.1 0-.6 1.2-1.1 2.6-1.1 1.6 0 2.3-.4 1.8-1.2-.4-.7-.3-.8.5-.4.6.4 1.8.2 2.6-.4.8-.7 1.5-.9 1.5-.4s.5.1 1.1-.9c.9-1.5 1.3-1.6 2.7-.5 1.3 1.1 1.5 1.1 1-.3-.5-1.3 0-1.6 2.3-1.4 2.3.2 2.9-.1 2.5-1.2-.3-.8-.1-1.1.5-.8.5.4 1.7.1 2.6-.7 1.4-1.1 1.6-1.1.9.2-.4.8-.1.7.8-.4.8-1 2-1.5 2.7-1 .7.4 1 .3.6-.2-.3-.5.6-1.4 1.9-2.1 1.8-.8 2.3-.8 1.8 0-.3.7.4.1 1.6-1.3 1.2-1.4 1.8-1.8 1.4-1-.6 1.2-.5 1.3.7.4.8-.6 2.3-1.3 3.4-1.6 1.6-.4 2 .1 2.2 2.5.3 3.3 2.1 6 3.5 5.1.6-.4.5.4-.2 1.6-.8 1.5-.8 2-.1 1.6.7-.5 1.1.1 1.1 1.4 0 1.4.4 1.9 1.2 1.4.8-.5.9-.2.5 1-.6 1.4-.3 1.7.9 1.2 1.4-.5 1.5-.4.4.9-.8 1-.9 1.5-.1 1.5.6 0 1.1.7 1.1 1.5 0 .9.7 1.8 1.5 2.1.8.4 1.3 1 1 1.4-.3.5.3 2.4 1.4 4.3 1.1 1.9 1.7 3.8 1.4 4.1-.4.3.2.6 1.3.6 1.6 0 1.7.2.4 1-1.1.7-1.1 1-.2 1 .7 0 1 .4.7 1-.3.5.2 1 1.2 1 1.5 0 1.6.2.3 1-1 .6-1.1 1-.2 1 .6 0 1.2.9 1.2 2s.5 2 1 2c.6 0 1 1.2 1 2.6 0 1.4.4 2.3.9 2 .5-.3 1.2.1 1.5 1 .4 1 .2 1.3-.7.9-.6-.4-.4 0 .6.8 1.4 1.1 1.5 1.6.5 2-.8.3-.6.6.5.6 1 .1 1.5.5 1.2 1.1-.3.5-.1 1 .5 1s.9.4.6.9c-.3.5.1 1.2 1 1.5.9.4 1.4.9 1.1 1.3-.4.3-.1 1.3.6 2.1 1 1.3.9 1.4-.1.8-1.1-.7-1.2-.4-.3 1.3.7 1.1 1.6 2.1 2.2 2.1.6 0 .7.4.4 1-.3.5-.2 1 .4 1 .6 0 .8.6.5 1.4-.3.8.4 2.4 1.5 3.5 1.2 1.2 1.8 2.1 1.4 2.1-.5 0-.1.5.7 1 1.1.7 1.2 1 .2 1s-1 .3.2 1.5c1.9 2 5 2 4.2 0-.3-.8-.1-1.5.5-1.5s.7-.5.4-1c-.3-.6-.1-1 .5-1 .7 0 .9-.7.6-1.6-.4-1-.2-1.3.6-.8.7.5.9-.1.6-2-.4-2.2-.3-2.4.9-1.4.8.6 1.3.7 1.2.2-.1-.5.4-2.3 1.1-3.9.7-1.7 1.3-3.3 1.2-3.8-.1-.4.2-.7.8-.7.5 0 .6-.8.3-1.7-.5-1.2-.2-1.5 1-1 1.2.4 1.5.1 1.2-1.4-.2-1 .1-1.9.6-1.9.6 0 .8-.4.5-.9-.3-.5.1-1.1.9-1.5.8-.3 1.5-1.3 1.5-2.1 0-1-.5-1.3-1.2-.9s-.8.3-.4-.5c.4-.6 1.2-.8 1.8-.5.7.5.9 0 .6-1.4-.4-1.6-.2-1.9 1-1.5.9.4 1.3.2.9-.5-.9-1.3 1.3-6.3 2.4-5.6.5.3.9 0 .9-.5 0-.6-.6-1.1-1.2-1.1-.8 0-.9-.3-.3-.8.6-.4 1.7-1.6 2.5-2.6 1.3-1.8 1.3-1.9 0-1.2-.8.4-.7.1.4-.8 1-.8 1.9-2.6 2-4 0-1.3.6-2.4 1.1-2.3.6.1 1-.5 1-1.3s.7-2.1 1.5-2.8c1.3-1.2 1.3-1.3 0-.7-1.2.5-1.2.4.1-.7.9-.7 1.5-2.1 1.3-3.1-.1-.9.2-1.5.7-1.1.5.3.9 0 .9-.6s.5-.8 1.1-.4c.7.4.7-.2-.1-1.7-.7-1.3-.9-2.1-.5-1.7 1 1 3.4-2.2 3.5-4.5 0-1.1.5-1.5 1.1-1.1.8.5.8.1 0-1.4s-.8-2.3.1-2.8c.7-.5.9-.2.4.7-.4.8-.1.5.8-.5.8-1 1.3-2.2 1.1-2.6-.3-.5.2-1.1 1.1-1.4.9-.4 1.4-1.3 1-2.1-.3-.8-.1-1.5.5-1.5s.7-.5.4-1c-.3-.6-.2-1 .4-1 .5 0 .8-.9.6-1.9-.3-1.4.1-1.8 1.1-1.4.9.3 1.4-.1 1.4-1.4 0-1 .6-2.5 1.3-3.2 1-1.1.9-1.3-.3-.7-1.3.7-1.3.6 0-.6.8-.7 1.5-1.8 1.6-2.3.1-2 2.4-6.5 3.3-6.5.5 0 .8-1 .6-2.1-.3-1.2-.2-1.9.2-1.5 1.1 1.1 4.1-4.8 3.1-6.1-.7-.9-.4-1.1 1.2-.8 1.8.3 2 .2 1-1s-1-1.5 0-1.5c.7 0 1-.7.6-1.6-.3-.8-.2-1.2.4-.9.6.3 1-.3 1-1.5s.5-1.8 1-1.5c.6.4 1-.5 1-1.9s.5-2.6 1-2.6c.6 0 1-.8 1-1.8 0-.9.7-2.6 1.5-3.6s1.2-2.3.9-2.7c-.3-.5 0-.9.6-.9.7 0 .9-.7.6-1.6-.3-.8-.2-1.2.4-.9.9.5 1.2-.1.9-2.1 0-.3.8-1.2 1.8-2.1 1.1-.9 1.2-1.2.3-.8-1 .4-1 .2.2-.8 1.4-1.1 1.5-1.6.5-2.6-.9-1-.9-1.2.3-.9.8.2 1.4-.3 1.3-1-.2-.6.2-1.2.9-1.2.6 0 .8-.3.5-.7-.4-.3.1-1.1 1-1.8 1.3-.9 1.3-1.4.3-2-.9-.6-1.1-.4-.5.5.6.9.4 1.1-.4.6-1.3-.9-.6-2.1 1.2-2.1.7 0 1.1-.8.9-1.8-.2-1 .3-1.6 1-1.5.8.2 1.3-.7 1.2-2.4-.1-1.7.3-2.5 1.2-2.1.8.3 1.1-.2 1-1.4-.2-1 .3-2.3 1.1-2.8.8-.6 1.5-2 1.6-3.3 0-1.2.5-2.2 1-2.2.4 0 .5-.5.2-1-.3-.6-.1-1 .5-1s.9-.4.5-.9c-.3-.5-.1-1.2.5-1.6.6-.4.7-1.2.4-1.8-.4-.7-.4-.9.1-.5.4.4 1.4.3 2.2-.3 1-.9 1.1-1.5.2-2.6-.9-1.1-.9-1.7.1-2.6 1-1 1.1-.9.5.2-.5.9-.4 1.2.3.7.7-.4 1.2-1.6 1.2-2.7 0-1 .4-1.9 1-1.9.5 0 .6-.7.3-1.7-.4-1-.2-1.4.4-1 .6.4 1.3-.2 1.6-1.3.3-1.1.2-1.8-.2-1.5-.4.2-.8-.2-.8-1s.5-1.1 1-.8c.6.4.7-.4.3-2.1-.5-2-.3-2.6.5-2.1.8.6.8.2 0-1.2-.6-1.1-.8-2.3-.4-2.6.3-.4 0-1.3-.6-2.1-.9-1.1-.9-1.6 0-2.2.8-.4.9-.3.5.4s-.2 1.2.3 1.2c1.5 0 1.4-1.2-.6-3.9-1-1.5-1.1-2.1-.3-1.6 1 .6 1.1.2.6-1.9-.5-2-.3-2.6.5-2.1.8.6.8.2 0-1.2-.6-1.1-.8-2.3-.4-2.6.3-.4 0-1.3-.7-2.2-1.1-1.3-1-1.4.4-.9.9.3 1.6.1 1.6-.5s-.8-1.1-1.7-1.1c-1.3 0-1.5-.2-.5-.8.7-.5 1.4-1.8 1.7-3.1.2-1.2 0-1.9-.6-1.6-.5.4-.6 1.1-.3 1.7.4.6.3.8-.3.5-1.1-.7-1-4.3.2-5.4.4-.5.5-.2 0 .6-.6 1-.4 1.2.4.7s.9-1.2.2-2c-.6-.7-.6-1.7-.1-2.6.5-.8.5-2.1 0-3.1-.5-.9-.7-1.9-.4-2.2.3-.3.7-1.9.8-3.6.2-2.2-.2-3.1-1.3-3.1-1.2 0-1.3-.2-.3-.8.7-.5 1.4-1.8 1.7-3.1.2-1.2 0-1.9-.6-1.6-.5.4-.6 1.1-.3 1.7.4.6.2.8-.4.5-.5-.4-.8-1.6-.5-2.7.3-1.2 1-1.7 1.7-1.3.6.4.3-.6-.8-2.1-1-1.6-1.2-2.5-.6-2.1 1 .6 1.1.1.6-1.9-.5-2-.3-2.6.5-2.1.8.6.8.2 0-1.2-.6-1.1-.8-2.3-.4-2.6.3-.4 0-1.3-.6-2.1-.9-1.1-.9-1.6 0-2.2.8-.4.9-.3.5.4s-.2 1.2.3 1.2c1.5 0 1.4-1.2-.6-3.9-1-1.5-1.1-2.1-.3-1.6 1 .6 1.1.2.6-1.9-.5-2-.3-2.6.5-2.1.8.6.8.2 0-1.2-.6-1.1-.8-2.3-.4-2.6.3-.4 0-1.3-.7-2.2-1.1-1.3-1-1.4.4-.9.9.3 1.6.1 1.6-.5s-.8-1.1-1.7-1.1c-1.3 0-1.5-.2-.5-.8.7-.5 1.4-1.8 1.7-3.1.2-1.2 0-1.9-.6-1.6-.5.4-.6 1.1-.3 1.7.4.6.3.8-.3.5-1.1-.7-1-4.3.2-5.4.4-.5.5-.2 0 .6-.6 1-.4 1.2.4.7s.9-1.2.2-2c-.6-.7-.6-1.7-.1-2.6.5-.8.5-2.1 0-3.1-.5-.9-.7-1.9-.4-2.2.3-.3.7-1.9.8-3.6.2-2.2-.2-3.1-1.3-3.1-1.2 0-1.3-.2-.3-.8.7-.5 1.4-1.8 1.7-3.1.2-1.2 0-1.9-.6-1.6-.5.4-.6 1.1-.3 1.7.4.7.2.8-.4.4-.9-.5-.9-1.4.1-3.4.7-1.5 1.2-3.3 1.1-4-.1-.6-.2-1.7-.3-2.3 0-.5-.7-.7-1.3-.3-1 .6-1 .4 0-.7.6-.7 1.2-1.7 1.2-2.2 0-.4-.6-.5-1.2-.1-.8.5-.7 0 .2-1.1.8-1 1-1.6.3-1.2-.9.6-1.1-.3-.8-3.2.2-2.5-.1-4.4-1-5.1-1-.8-1.4-4.5-.5-4.5.1 0 .3-1 .6-2.3.3-1.6 0-2.1-.8-1.6s-.9.2-.5-.9c.3-1 .2-1.7-.2-1.7-.5 0-.7-.9-.4-2 .3-1.3 0-2-.8-2-1.1 0-1.1-.2.1-1 .9-.6 1-1 .3-1-.6 0-1-.9-.8-1.9.2-1.1-.2-2.7-1-3.7-.9-1.3-1-2.4-.4-3.7.7-1.3.6-1.9-.6-2.4-1.3-.5-1.4-.7-.3-1.4.9-.6 1-.9.1-.9-.7 0-1-.6-.7-1.4.3-.8 0-1.7-.5-2.1-.6-.3-.9-1.1-.6-1.6.4-.5-.2-.9-1.1-.9-1.6 0-1.6-.1.2-1.5 1-.8 1.3-1.4.5-1.3-.8.2-1.4-.9-1.7-3.1-.2-1.9-1.2-4.4-2.2-5.5-1.2-1.4-1.3-1.7-.2-1.1 1.2.7 1.3.6.3-.7-.7-.8-1-1.8-.6-2.1.3-.4.1-.7-.5-.7-.7 0-1.1-.3-1.1-.8.4-2.1-.2-3.2-1.3-2.6-.8.5-.7 0 .2-1.1 1.2-1.5 1.2-1.7.1-1-1.1.6-1.3.3-.9-1.3.4-1.3.1-2-.5-1.9-.6.1-1.1-.5-1.2-1.3-.1-2.7-1.8-6.5-3.4-7.8-.9-.8-1-1.1-.3-.7.6.3 1.2.1 1.2-.4 0-.6-.5-1.1-1.1-1.1-.6 0-.9-.6-.6-1.4.3-.8-.1-2-.9-2.6-.8-.7-1.4-1.9-1.4-2.6 0-.8-.5-1.4-1.1-1.4-.6 0-.8-.7-.5-1.5.3-1-.1-1.9-1.2-2.3-1-.4-1.8-1.6-1.8-2.7s-.6-1.9-1.3-1.7c-.8.2-1.1-.3-.8-1.3.4-.8.2-1.5-.3-1.5-.6 0-1-.7-1-1.5s-.4-1.5-1-1.5c-.5 0-1-.7-1-1.6 0-.9-1-2.5-2.2-3.5-1.4-1.3-1.7-1.9-.7-1.9.8-.1.3-.7-1.1-1.5-1.5-.9-1.9-1.5-1-1.5 1.2 0 1.1-.3-.2-1.1-1-.5-1.8-1.6-1.8-2.4 0-.9-.6-1.2-1.5-.9-1.1.5-1.3.2-.8-1.2.4-1.1.3-1.5-.4-1.1-.6.4-1-.1-.9-1.1 0-.9-.4-1.6-1.1-1.5-.7.2-1-.4-.7-1.2.4-.8.2-1.5-.4-1.5-.5 0-1.5-1.3-2.2-3-.7-1.6-1.6-2.7-2.1-2.4-.5.3-.9 0-.9-.6s-.5-.8-1.2-.4c-.6.4-.8.3-.4-.4.3-.6-.6-2.3-2.1-3.8-1.6-1.5-1.9-2.1-.8-1.3 1.8 1.3 1.9 1.3.6-.4-.7-.9-2-1.7-2.8-1.7-.8 0-1.2-.4-.8-.9.7-1.3-17-19.2-18-18.3-.5.4-.5-.1-.1-1.2.5-1.4.2-1.7-.9-1.2-1.3.5-2-.5-1.6-2.6 0-.4-1-1-2.4-1.4-1.4-.3-2.3-1-2-1.4.6-1-2.4-2.2-3.6-1.5-.5.4-.6 0-.3-.8s-.3-2-1.2-2.8c-1.6-1.2-1.7-1.2-1 .1.5.8-.3.3-1.6-1.2-1.4-1.5-2.8-2.5-3.2-2.1-.3.3-.6-.1-.6-1 0-1.1-.8-1.7-2.2-1.7-1.9 0-2-.2-.8-1 1.2-.7.8-1-1.4-1-1.6 0-2.7-.3-2.3-.6.8-.8-1.6-3.3-2.5-2.7-.5.2-.8 0-.8-.6 0-.5-.8-1.2-1.8-1.5-1-.4-2.8-1.5-4.1-2.7-1.2-1.1-3-2.1-4.1-2.2-1-.1-1.6-.5-1.4-.9.3-.4 0-.8-.6-.8s-2-.9-3.2-2c-1.2-1.1-2.8-2-3.5-2-.7 0-1.3-.4-1.3-.9 0-.6-.9-.8-2-.6-1.1.2-1.9.1-1.9-.3.1-.4.1-1.4 0-2.2-.1-1.3-.3-1.3-1-.1-.7 1.1-1.4.9-3.5-1.2-1.4-1.4-2.6-2.1-2.6-1.4 0 .8-.3.8-.8.2-1.3-1.9-5.7-5.1-4.7-3.5.6.9.2.8-.7-.2-1.2-1.3-1.9-1.5-2.4-.7-.4.8-1.2.4-2.1-1.2-1.1-1.9-1.3-2-.9-.4.6 2 .6 2-.9.1-.8-1.1-1.5-1.6-1.5-1.1s-.6.1-1.3-1c-.9-1.2-1.6-1.4-2.1-.7-.5.8-1.2.6-2.6-.5-2.7-2.3-8.3-4.6-7.3-3 .8 1.3-2.8-1.2-3.9-2.8-.5-.6-.8-.4-.8.5 0 1.1-.2 1.2-.8.3-.5-.7-2-1.4-3.5-1.5-1.5-.1-2.7-.5-2.7-.9 0-.6-1.7-.9-5.3-1-.9 0-1.5-.4-1.2-1 .9-1.3-.9-1.1-2.4.3-1 1.1-1.2 1-.9-.2.2-.8-.3-1.4-.9-1.3-.7.2-1.3-.2-1.3-.8 0-.8-.6-.7-1.7.2-.9.8-1.4.9-1 .3.9-1.5-3.5-2.4-5.7-1.2-1.2.7-1.4.5-1-.6.4-1.1-.3-1.4-3-1.2-2.2.1-3.8-.4-4.1-1.2-.4-1.2-.8-1.2-2-.2-1 .9-1.5.9-1.5.1 0-.6-.5-1.1-1.1-1.1-.5 0-.7.6-.4 1.2.4.7-.1.4-.9-.6-.9-1.1-1.6-1.4-1.6-.8 0 1-.5 1-2 .2s-2-.8-2.1.2c0 .7-.4.4-.9-.7-.8-1.9-.9-1.9-.9-.1-.1 2-.1 2-1.7 0-.8-1-1.2-1.2-.8-.4.6 1.2.4 1.3-.7.2-.7-.6-1.7-1.2-2.2-1.2-.4 0-.5.6-.1 1.2.6 1 .4 1-.7 0-1.7-1.5-3.3-1.6-2.3 0 .4.7-.6.2-2.2-.9-2.1-1.5-3.5-1.9-4.5-1.2-2 1.3-3.1 1.1-2.3-.4.6-.9.5-.9-.7 0-1.2 1-1.8 1-2.9 0-1-.9-1.1-.9-.6 0 .4.7.3 1.3-.1 1.3-.5 0-1.5-.6-2.2-1.3-1.1-1-1.3-1-.7 0 .4.7.3 1.3-.3 1.3-.5 0-1.2-.6-1.4-1.3-.3-.6-.6-.3-.7.8-.1 1.9-.1 1.9-1.1.2-.7-1.1-1.5-1.5-2.2-1-1.5 1.1-3.8 1-5.6-.1-1-.6-1.2-.5-.7.2.4.7.3 1.2-.3 1.2-.5 0-1.2-.6-1.4-1.3-.3-.6-.6-.3-.6.7-.1 1.9-.1 1.9-1.4.1-1-1.3-1.6-1.5-2.1-.6-.6.9-1.1.9-2.4-.1-1.2-1-1.4-1-.8-.1.4.7.3 1.3-.3 1.3-.5 0-1.2-.4-1.5-.8-.4-.7-5.1-.8-5.1-.2 0 .1-1.5.3-3.3.5-1.8.2-3-.1-2.7-.6.4-.5.1-.9-.4-.9-.6 0-1.1.5-1.1 1.1zm255.5 145.8c.3.5.2 1.2-.3 1.5-.5.3-.9-.1-.9-.9 0-1.7.3-1.9 1.2-.6zm-236.8 48c.8-.8 1.3-.8 1.3-.1 0 .8 2.8.9 3.8.2.6-.5 4.8-.6 5.7-.1 1.9 1 3.5.9 3.5-.2 0-.7.5-.5 1 .3.9 1.3 1 1.3 1 0 0-1.2.2-1.2.8-.2.5.7 2.2 1.5 3.8 1.8 1.6.3 3.2 1.1 3.6 1.7.6.9.8.9.8 0 0-.6.9-.9 2.1-.6 1.6.5 1.8.8.7 1.5-.9.7-.7.8 1 .5 1.2-.3 2.2-.1 2.2.5s.7.8 1.5.4c.9-.3 1.9.3 2.6 1.5.6 1.2 1.7 1.8 2.5 1.5.8-.3 1.4.1 1.4.9s.4 1.4.9 1.3c.5-.2 1.7.6 2.5 1.7l1.6 2-.5-2c-.3-1.1.1-.8.8.8.7 1.5 1.6 2.4 2 2.1.4-.4.7.1.7 1.1s.3 1.5.7 1.1c.4-.3 1.3.4 2.1 1.6.8 1.4 1.1 1.6.8.5-.3-1.1-.2-1.5.4-1.2.6.3 1 1.5 1 2.6 0 1.2.4 1.7 1.1 1.4.6-.4 1.3.2 1.6 1.4.3 1.2.9 2.1 1.3 2.1s1 .9 1.3 2.1c.3 1.2 1 1.8 1.7 1.4.6-.3.9-.3.8.2-.5 1.8 1.4 5.3 2.5 4.6.7-.4.6.1-.2 1-.9 1.1-1 1.7-.2 1.7.6 0 1.1.7 1.1 1.6 0 .9.8 2.3 1.8 3 1.2 1 1.3 1.3.3 1.4-1.1 0-1 .5.4 2 1.1 1.2 1.3 2 .6 2-.9 0-.9.5.1 2.2.7 1.3 1.1 2.7 1 3.2-.2.4.3 1.4.9 2.2.7.8.9 1.7.5 2.1-.3.3-.6.1-.6-.5 0-.7-.4-1.2-1-1.2s-.6.9-.1 2.3c.5 1.3.5 3 0 3.9-.6 1.1-.5 1.9.2 2.4.8.5.9.3.4-.6-.5-.9-.4-1.1.3-.6 1.7 1 1.5 2.6-.4 2.6-1 0-1.2.4-.7 1.2.4.7.6 2.1.5 3-.2 1 .3 1.8 1 1.8.8 0 .6.5-.5 1.1-1.4.8-1.5 1.4-.6 3.1.6 1.2.7 1.8.1 1.4-1.4-.9-2.3 1.9-1 3.2.8.8.7 1.3-.5 1.7-.9.4-1.3 1.3-1 2.2.4 1.1.2 1.4-.5.9-.8-.5-1-.2-.6.8.3.9.1 1.6-.5 1.6s-1.1.5-1.1 1.1c0 .5.6.7 1.3.4.6-.4.4 0-.6.8s-1.9 2.5-2 3.6c-.1 1.2-.7 1.9-1.3 1.7-.8-.3-1.1.4-.9 1.9.1 1.4-.1 2.2-.6 2-1.1-.7-3.9 3.6-3.2 4.9.3.6.3.8-.2.4-1.1-1.1-3.6 1.2-2.8 2.5.3.5.1.7-.5.3-1.3-.8-4.4 2.2-3.7 3.5.4.5-.1.6-1 .3-1-.4-1.5-.2-1.3.7.2.8-.2 1.3-.9 1.2-.6-.2-1.5.6-1.8 1.7-.4 1.1-1.1 2-1.6 2-1.8 0-2.4.3-3.7 1.9-.8.9-1.1 1-.7.3.3-.6.1-1.2-.4-1.2-.6 0-1.1.6-1.1 1.4 0 .8-.7 1.7-1.6 2-1 .4-1.3.2-.9-.7.4-.6 0-.4-.8.5-.8 1-1.6 1.5-1.9 1.2-.3-.3-2.2.4-4.3 1.6-2 1.1-3.3 1.5-2.9.8.4-.7-.3-.4-1.6.7s-2 1.4-1.6.7c.4-.6.3-1.2-.3-1.2-.5 0-1.5.8-2 1.7-.8 1.4-1 1.4-1.1.3 0-1-.3-1.1-1.2-.2-.8.8-1.7.8-3.1.1-1.4-.8-1.8-.8-1.3 0 .4.6.2 1.1-.3 1.1-.6 0-1.1-.5-1.1-1.1 0-.8-.5-.7-1.6.2-1.3 1-1.7 1-2.4-.1s-1.1-1.1-2.4-.1c-1.2 1.1-1.6 1.1-1.6.1s-.4-1-1.6.1c-1.3 1-1.7 1-2.4 0-.5-.9-1-1-1.4-.3-.4.7-2.2.4-5.3-.9-4.2-1.8-4.5-1.8-3.2-.2 1 1.4.8 1.3-1-.2-1.3-1.1-2.5-1.9-2.7-1.8-1.2.8-2.4.1-1.8-.9.5-.8.2-.9-.9-.5-1 .3-1.7.2-1.7-.3 0-.6-.5-1-1.1-1-.5 0-.7.4-.4 1 .3.6-.1.7-.9.4-.9-.3-1.3-1-1-1.5.5-.9-.9-1.3-3.4-1-.7.1-1.1-.4-1-1.1.2-.7-.3-1.2-.9-1.1-.7.2-1.3-.4-1.3-1.3 0-1-.6-1.4-1.5-1-.8.3-1.5.2-1.5-.2 0-.5-.7-1.7-1.5-2.8-1.5-1.9-1.5-1.9-.9.1.3 1.2-.1.9-1.1-.8-.8-1.5-1.9-2.7-2.4-2.7-.4 0-1.4-1.1-2.1-2.5-.7-1.4-1.7-2.5-2.2-2.5-1.4 0-4.9-4-3.5-4.1 1 0 1-.2 0-.6-.7-.2-1.3-1-1.3-1.7 0-.6-.9-1.8-2-2.6-1.4-1-1.6-1.6-.7-2.2.8-.5.6-.8-.6-.8-1 0-1.5-.5-1.2-1 .3-.6.1-1-.6-1-.9 0-.9-.3 0-1.4.9-1 .8-1.5-.4-1.9-.9-.4-1.2-1.3-.8-2.3.4-1.2.3-1.5-.5-1s-1.2-.1-1.2-1.6c-.1-7.2-.6-9.8-1.8-9.3-.8.3-1 0-.5-.8.4-.6.8-1.5.9-2 .1-.4.3-1 .4-1.5.6-1.8.4-3.7-.3-4.3-.4-.3-.3-1.8.2-3.2.9-2.2.8-2.7-.5-2.7-.8 0-1.2-.5-.9-1 .4-.6 1.2-.7 1.8-.4.9.5.8.3 0-.6-1-1.1-1-1.7 0-2.9s.9-1.3-.3-.6c-1.2.7-1.3.6-.3-.7.7-.8 1-1.8.6-2.1-.3-.4-.1-.7.5-.7.7 0 1.2-.5 1.2-1.1 0-.5-.4-.7-1-.4-.5.3-1 .1-1-.4 0-.6.5-1.1 1.1-1.1.6 0 .8-.7.5-1.6-.4-1.1-.2-1.5.8-1.1 1 .4 1.2 0 .8-1.5-.3-1.4-.1-1.9.6-1.5 1.1.8 1.1-1.1-.1-3-.6-.9-.3-1.1 1-.6 1 .3 1.5.3 1.1-.2-.4-.4-.3-1.4.3-2.2.6-.7.8-1.3.5-1.3-.4 0-.1-.6.6-1.4.7-.8 1.7-1.1 2.2-.8.5.3.6-.3.3-1.2-.6-1.4-.3-1.7.9-1.2 1.4.5 1.5.4.5-.8-1-1.2-.8-1.6.9-2.1 1.6-.5 1.9-1 1-2-.9-1.1-.7-1.2.9-.8 1.9.5 2.6-.4 2.2-2.9 0-.4.7-.4 1.6-.1 1.1.4 1.4.3.9-.5-.4-.7-.2-1.2.4-1.2.6 0 .9-.4.5-.9-.3-.5 0-1.3.6-1.7.8-.4.9-.3.5.4s-.2 1.2.3 1.2c1 0 1.5-1.4 1.2-3.2 0-.5.2-.8.7-.7 1.7.3 5.1-1.4 4.6-2.2-.3-.5.2-.9 1-.9.9 0 1.6-.4 1.6-.9 0-.6.8-.8 1.9-.6 1.2.2 1.8-.2 1.7-1.3-.1-1.2.7-1.7 2.7-1.6 1.5.1 2.7-.2 2.7-.7 0-.5.7-.5 1.7-.2 1 .4 1.4.2 1-.4-.4-.6.2-1.3 1.3-1.6 1.3-.3 1.8-.1 1.3.6-.4.8-.2.8.8 0 .9-.7 3-1.4 4.7-1.6 1.8-.2 3.5-.7 3.9-1.1.4-.3 1.1-.2 1.7.4.6.6 1.4.6 2.3-.1zM557 283.4c0 .3-.4.8-1 1.1-.5.3-1 .1-1-.4 0-.6.5-1.1 1-1.1.6 0 1 .2 1 .4zm0 64c0 .3-.4.8-1 1.1-.5.3-1 .1-1-.4 0-.6.5-1.1 1-1.1.6 0 1 .2 1 .4zM516.5 480c-.3.5-1.2 1-1.8 1-.7 0-.6-.4.3-1 1.9-1.2 2.3-1.2 1.5 0z"/><path d="M56 205.1c0 .5.5.7 1 .4.6-.3 1-.8 1-1.1 0-.2-.4-.4-1-.4-.5 0-1 .5-1 1.1zM554.3 249.5c0 .8.4 1.2.9.9.5-.3.6-1 .3-1.5-.9-1.3-1.2-1.1-1.2.6z"/></svg>