<?xml version="1.0" encoding="utf-8"?>
<!-- Svg Vector Icons : http://www.onlinewebfonts.com/icon -->
<!DOCTYPE svg PUBLIC "-//W3C//DTD SVG 1.1//EN" "http://www.w3.org/Graphics/SVG/1.1/DTD/svg11.dtd">
<svg version="1.1" xmlns="http://www.w3.org/2000/svg" xmlns:xlink="http://www.w3.org/1999/xlink" x="0px" y="0px" viewBox="0 0 1000 1000" enable-background="new 0 0 1000 1000" xml:space="preserve">
<metadata> Svg Vector Icons : http://www.onlinewebfonts.com/icon </metadata>
<g><g transform="translate(0.000000,511.000000) scale(0.100000,-0.100000)"><path d="M2215.8,4976.8c-74-56.2-99.5-140.4-99.5-334.3v-194h-216.9c-227.1,0-349.6-38.3-380.3-114.8c-7.7-23-15.3-201.6-15.3-398.1v-354.7h-99.5c-79.1,0-112.3-15.3-153.1-66.4c-107.2-135.2-30.6-298.6,150.6-329.2l104.6-17.9l-7.7-296l-7.7-298.6l-94.4-7.7c-173.5-15.3-252.7-186.3-145.5-321.6c40.8-51,74-66.4,153.1-66.4h99.5v-303.7v-301.2l-99.5-17.9c-114.8-17.9-206.7-112.3-206.7-211.8c0-91.9,107.2-186.3,216.9-186.3h89.3V850.1V543.9H1440c-84.2,0-206.7-63.8-227.1-114.9c-56.1-145.5,45.9-293.5,201.6-293.5h89.3v-306.3V-477h-89.3c-117.4,0-216.9-94.4-216.9-204.2s99.5-204.2,216.9-204.2h89.3v-306.2v-306.3h-89.3c-155.7,0-257.8-148-201.6-293.5c20.4-51,142.9-114.8,227.1-114.8h63.8v-306.3v-306.3h-89.3c-109.7,0-216.9-94.4-216.9-186.3c0-99.5,91.9-194,206.7-211.8l102.1-17.9l-7.7-296.1l-7.7-296l-94.4-7.6c-107.2-10.2-199.1-99.6-199.1-196.5c0-97,91.9-186.3,199.1-196.5l94.4-7.7l12.8-377.7c12.8-359.9,15.3-382.8,74-428.7c58.7-46,148-48.5,3261.6-48.5h3202.9l74,74c68.9,71.5,74,86.8,74,280.7v206.7h232.2c222,0,234.8,2.5,306.3,74l74,74v4484V4885l-63.8,61.2l-61.3,63.8H5467.2C2984,5007.4,2246.4,5002.3,2215.8,4976.8z M8394.4,390.7v-4210.9h-102.1h-102.1l-5.1,4070.6l-7.7,4068l-58.7,58.7l-58.7,58.7l-2766.5,7.7l-2769,5.1v76.6v76.6h2934.9h2934.9V390.7z M7781.9-170.7l-2.5-4210.9H4847H1912.1v229.7v229.7h102.1c130.2,0,204.2,68.9,204.2,191.4c0,122.5-74,191.4-204.2,191.4h-102.1v306.3v306.2h63.8c84.2,0,206.7,63.8,227.1,114.8c56.1,153.1-35.7,293.5-194,293.5h-97v303.7v301.1l107.2,15.3c130.1,17.9,199.1,89.3,199.1,209.3c0,107.2-97,191.4-219.5,191.4h-86.8v306.3v306.2h86.8c130.2,0,219.5,84.2,219.5,204.2S2129-477,1998.9-477h-86.8v306.3v306.3h86.8c48.5,0,114.8,23,153.1,53.6c145.5,114.8,43.4,354.7-150.6,354.7h-89.3v306.2v306.3h94.4c122.5,0,211.8,81.7,211.8,194c0,117.4-68.9,188.9-199.1,206.7l-107.2,15.3v301.2v303.7h102.1c168.4,0,260.3,155.7,178.6,306.3c-30.6,56.2-155.7,102.1-227.1,84.2c-51-12.8-53.6-5.1-53.6,293.5v303.7l102.1,17.9c132.7,20.4,204.2,91.9,204.2,206.7c0,122.5-74,191.4-204.2,191.4h-102.1v229.7v229.7H4847h2934.9V-170.7z"/></g></g>
</svg>