<?xml version="1.0" encoding="iso-8859-1"?>
<!-- Generator: Adobe Illustrator 18.0.0, SVG Export Plug-In . SVG Version: 6.00 Build 0)  -->
<!DOCTYPE svg PUBLIC "-//W3C//DTD SVG 1.1//EN" "http://www.w3.org/Graphics/SVG/1.1/DTD/svg11.dtd">
<svg version="1.1" id="Capa_1" xmlns="http://www.w3.org/2000/svg" xmlns:xlink="http://www.w3.org/1999/xlink" x="0px" y="0px"
	 viewBox="0 0 443.09 443.09" style="enable-background:new 0 0 443.09 443.09;" xml:space="preserve">
<path d="M387.342,43.11c0-23.771-19.339-43.11-43.11-43.11h-241.32C89.096,0,77.856,11.239,77.856,25.055v18.674h-4.198
	c-4.802,0-9.303,1.866-12.66,5.24c-3.386,3.386-5.25,7.885-5.25,12.669c0,9.875,8.035,17.91,17.91,17.91h4.198v25.236h-4.198
	c-4.802,0-9.303,1.866-12.66,5.24c-3.386,3.386-5.25,7.885-5.25,12.67c0,9.875,8.035,17.91,17.91,17.91h4.198v25.236h-4.198
	c-4.802,0-9.303,1.866-12.66,5.24c-3.386,3.386-5.25,7.885-5.25,12.67c0,9.875,8.035,17.91,17.91,17.91h4.198v25.236h-4.198
	c-4.802,0-9.303,1.866-12.66,5.24c-3.386,3.386-5.25,7.885-5.25,12.669c0,9.875,8.035,17.91,17.91,17.91h4.198v25.236h-4.198
	c-4.803,0-9.303,1.866-12.66,5.241c-3.386,3.386-5.25,7.885-5.25,12.669c0,9.875,8.035,17.91,17.91,17.91h4.198v25.236h-4.198
	c-4.802,0-9.303,1.866-12.66,5.24c-3.386,3.386-5.25,7.885-5.25,12.67c0,9.875,8.035,17.91,17.91,17.91h4.198v33.207h0.002
	c0,13.815,11.24,25.055,25.055,25.055h241.315c23.771,0,43.11-19.339,43.11-43.11L387.342,43.11z M73.658,65.548
	c-2.156,0-3.91-1.754-3.91-3.91c0-1.339,0.625-2.246,1.163-2.783c0.723-0.727,1.699-1.127,2.748-1.127h4.198v7.82H73.658z
	 M73.658,126.604c-2.156,0-3.91-1.754-3.91-3.91c0-1.339,0.625-2.246,1.163-2.783c0.723-0.727,1.699-1.127,2.748-1.127h4.198v7.82
	H73.658z M73.658,187.66c-2.156,0-3.91-1.754-3.91-3.91c0-1.339,0.625-2.246,1.163-2.783c0.723-0.727,1.699-1.127,2.748-1.127h4.198
	v7.82H73.658z M73.658,248.716c-2.156,0-3.91-1.754-3.91-3.91c0-1.339,0.625-2.246,1.163-2.783c0.723-0.727,1.699-1.127,2.748-1.127
	h4.198v7.82H73.658z M73.658,309.772c-2.156,0-3.91-1.754-3.91-3.91c0-1.339,0.625-2.246,1.164-2.784
	c0.723-0.727,1.698-1.126,2.747-1.126h4.198v7.82H73.658z M91.856,301.952h7.024c2.842,7.533,10.105,12.916,18.621,12.916
	c10.981,0,19.915-8.934,19.915-19.915c0-10.981-8.934-19.916-19.915-19.916c-8.515,0-15.779,5.382-18.621,12.915h-7.025v-47.056
	h7.024c2.842,7.533,10.106,12.916,18.621,12.916c10.981,0,19.915-8.934,19.915-19.916s-8.934-19.916-19.915-19.916
	c-8.516,0-15.779,5.382-18.621,12.916h-7.024V179.84h7.024c2.842,7.533,10.106,12.916,18.621,12.916
	c10.981,0,19.915-8.934,19.915-19.916c0-10.981-8.934-19.915-19.915-19.915c-8.515,0-15.779,5.382-18.621,12.915h-7.025v-47.056
	h7.024c2.842,7.533,10.105,12.916,18.621,12.916c10.981,0,19.915-8.934,19.915-19.915c0-10.981-8.934-19.916-19.915-19.916
	c-8.515,0-15.779,5.382-18.621,12.915h-7.025V57.729h7.024c2.842,7.533,10.106,12.916,18.621,12.916
	c10.981,0,19.915-8.934,19.915-19.916s-8.934-19.916-19.915-19.916c-8.516,0-15.779,5.382-18.621,12.916h-7.024V25.055
	c0-6.096,4.959-11.055,11.055-11.055h241.32c16.051,0,29.11,13.059,29.11,29.11l-0.003,320.876
	c-0.063,15.998-13.094,28.995-29.107,28.995H125.231v0h-22.317c-3.967,0-7.72,0.931-11.058,2.58v-32.551h7.024
	c2.842,7.533,10.106,12.916,18.621,12.916c10.981,0,19.915-8.934,19.915-19.916c0-10.981-8.934-19.915-19.915-19.915
	c-8.515,0-15.779,5.382-18.621,12.915h-7.025V301.952z M117.502,300.868c-3.262,0-5.916-2.653-5.916-5.915s2.654-5.916,5.916-5.916
	s5.915,2.654,5.915,5.916S120.764,300.868,117.502,300.868z M117.502,239.812c-3.262,0-5.916-2.654-5.916-5.916
	s2.654-5.916,5.916-5.916s5.915,2.654,5.915,5.916S120.764,239.812,117.502,239.812z M117.502,178.756
	c-3.262,0-5.916-2.654-5.916-5.916s2.654-5.915,5.916-5.915s5.915,2.653,5.915,5.915S120.764,178.756,117.502,178.756z
	 M117.502,117.7c-3.262,0-5.916-2.653-5.916-5.915s2.654-5.916,5.916-5.916s5.915,2.654,5.915,5.916S120.764,117.7,117.502,117.7z
	 M117.502,56.644c-3.262,0-5.916-2.654-5.916-5.916s2.654-5.916,5.916-5.916s5.915,2.654,5.915,5.916S120.764,56.644,117.502,56.644
	z M117.502,361.924c-3.262,0-5.916-2.654-5.916-5.916s2.654-5.915,5.916-5.915s5.915,2.653,5.915,5.915
	S120.764,361.924,117.502,361.924z M73.658,370.828c-2.156,0-3.91-1.754-3.91-3.91c0-1.339,0.625-2.246,1.163-2.783
	c0.723-0.727,1.699-1.127,2.748-1.127h4.198v7.82H73.658z M344.229,429.09H102.914c-6.096,0-11.055-4.959-11.055-11.055
	s4.959-11.055,11.055-11.055h2.873v0h238.445c11.21,0,21.432-4.304,29.107-11.342v4.342
	C373.339,416.031,360.28,429.09,344.229,429.09z"/>
<g>
</g>
<g>
</g>
<g>
</g>
<g>
</g>
<g>
</g>
<g>
</g>
<g>
</g>
<g>
</g>
<g>
</g>
<g>
</g>
<g>
</g>
<g>
</g>
<g>
</g>
<g>
</g>
<g>
</g>
</svg>
